Coordinates
version=1
nRows=17
nColumns=36
inDegrees=yes

Units are S.I. units (second, meters, Newtons, ...)
If the header above contains a line with 'inDegrees', this indicates whether rotational values are in degrees (yes) or radians (no).

endheader
time	pelvis_tilt	pelvis_list	pelvis_rotation	pelvis_tx	pelvis_ty	pelvis_tz	hip_flexion_r	hip_adduction_r	hip_rotation_r	knee_angle_r	knee_angle_r_beta	ankle_angle_r	subtalar_angle_r	mtp_angle_r	hip_flexion_l	hip_adduction_l	hip_rotation_l	knee_angle_l	knee_angle_l_beta	ankle_angle_l	subtalar_angle_l	mtp_angle_l	lumbar_extension	lumbar_bending	lumbar_rotation	arm_flex_r	arm_add_r	arm_rot_r	elbow_flex_r	pro_sup_r	arm_flex_l	arm_add_l	arm_rot_l	elbow_flex_l	pro_sup_l
     15.11666670	      6.19950732	     -0.32414438	     -4.09759117	      0.51099887	      1.01575053	      0.65186096	     17.75190681	     -1.38987487	      0.81845779	      7.56995778	      0.13212069	      2.07590712	     -2.19585573	     -7.49999987	    -15.56185458	      1.51923783	     -1.12391498	      8.62520627	      0.15053825	     13.08896121	     -7.41582070	     -7.49999987	    -15.24656091	     -0.82978163	      6.02650424	     -7.11170942	    -12.25435232	     -6.00568847	     26.93447394	     83.81088870	     19.39744994	    -12.27432722	     19.46603328	     26.58173501	     80.11728217
     15.13333330	      6.11678832	     -0.23882429	     -3.88810437	      0.50756116	      1.01617673	      0.65542806	     17.38197071	     -1.38568139	      0.86428187	      5.68288984	      0.09918514	      2.00503405	     -0.84418761	     -7.49999987	    -16.07290405	      1.42150545	     -1.18066083	      8.85556939	      0.15455884	     13.91423579	     -7.52065791	     -7.49999987	    -14.90685272	     -0.87141624	      6.15748109	     -7.03217496	    -12.14554710	     -5.98050703	     26.54938556	     83.95807444	     19.49184278	    -12.29517845	     19.41881584	     26.54133009	     80.21628119
     15.15000000	      6.21928126	     -0.37595571	     -3.57967868	      0.50542290	      1.01572135	      0.65881433	     16.87901773	     -1.22059114	      0.05463689	      5.05381286	      0.08820567	      2.17237177	      1.00055459	     -7.49999987	    -16.70316767	      1.04272688	     -1.55336790	      9.15751594	      0.15982880	     14.88439502	     -6.79645062	     -7.49999987	    -14.87199613	     -0.64292482	      6.08488886	     -6.40965902	    -12.13192729	     -5.83494206	     25.52759501	     84.24663321	     19.50402889	    -12.26269754	     19.24806083	     26.42061644	     80.41253790
     15.16666670	      6.18258984	     -0.60304771	     -3.34685225	      0.50550950	      1.01382759	      0.66265929	     16.54744077	     -0.87241186	     -0.20398756	      5.32462416	      0.09293222	      1.58461952	      1.06953783	     -7.49999987	    -17.05769161	      0.56337537	     -1.90838003	      9.71434070	      0.16954723	     15.43075843	     -6.49766939	     -7.49999987	    -14.64028443	     -0.27679680	      5.36754317	     -4.83234588	    -12.29045860	     -4.21003337	     23.54249632	     85.92636567	     18.70072082	    -12.47236449	     17.37910273	     26.75798635	     81.74376511
     15.18333330	      6.17618714	     -0.95591011	     -3.13559647	      0.50719096	      1.01201879	      0.66728506	     16.22308592	     -0.37667691	     -0.59809185	      6.23342747	      0.10879383	      0.92932663	      0.88506435	     -7.49999987	    -17.35188265	     -0.03358948	     -2.11918811	     10.54446405	      0.18403562	     15.78882909	     -6.38706972	     -7.49999987	    -14.68079387	      0.15018572	      5.56806484	     -4.51865985	    -12.38074260	     -4.19356665	     23.48496331	     85.95554026	     18.61450950	    -12.39262909	     17.29942783	     26.66589436	     81.80509440
     15.20000000	      6.13099388	     -1.37668180	     -2.92839557	      0.50917575	      1.01102655	      0.67196260	     15.93727851	      0.22440550	     -0.92447704	      7.41590814	      0.12943201	      0.14614247	      0.28235108	     -7.49999987	    -17.45260453	     -0.76553304	     -2.64777556	     11.84461181	      0.20672747	     16.60655149	     -5.22022560	     -7.49999987	    -14.60339017	      0.65664860	      5.01941648	     -3.25959105	    -12.57216779	     -2.56690176	     22.13416347	     86.89105949	     17.81591276	    -12.34792904	     14.61735463	     26.57798615	     85.48286943
     15.21666670	      5.94521189	     -1.76206122	     -2.81244630	      0.50932831	      1.01121586	      0.67506267	     15.89883337	      0.80602231	     -1.13283656	      8.87121143	      0.15483185	     -0.42764532	     -0.31821021	     -7.49999987	    -17.19058644	     -1.41616543	     -2.86432047	     13.66780620	      0.23854822	     17.07428023	     -4.79943678	     -7.49999987	    -14.36234225	      1.12967754	      4.83630710	     -2.24600248	    -12.75933415	     -1.42397737	     20.94840290	     85.23137533	     17.27016889	    -12.36321390	     14.44426725	     26.22446968	     84.00425325
     15.23333330	      5.85325932	     -2.25316768	     -2.62616128	      0.50770844	      1.01164811	      0.67678717	     15.73512260	      1.47852331	     -1.19350439	     10.31515366	      0.18003339	     -0.90821430	     -1.23807818	     -7.49999987	    -16.74425665	     -2.25635976	     -3.23658637	     16.14288163	      0.28174644	     17.55436413	     -4.20418562	     -7.49999987	    -14.39311709	      1.80887883	      4.48902485	     -1.38677688	    -13.39217610	      0.67850134	     21.10959504	     86.28976466	     16.59676091	    -12.58114419	     14.51188102	     26.16741452	     85.59093626
     15.25000000	      5.67933612	     -2.75068884	     -2.47846283	      0.50674428	      1.01241327	      0.67902932	     15.69076701	      2.17199797	     -1.02811910	     11.80182001	      0.20598062	     -1.05389880	     -2.23853526	     -7.49999987	    -15.98584393	     -3.14903850	     -3.66019994	     19.11494291	      0.33361869	     17.60231771	     -4.02001686	     -7.49999987	    -14.23119685	      2.58231042	      4.03677580	     -0.06202822	    -13.80420266	      1.38806119	     20.64583825	     87.37668055	     15.60947603	    -12.62493658	     13.67161324	     26.11591050	     87.02749041
     15.26666670	      5.61234508	     -3.36324310	     -2.35834269	      0.50812430	      1.01360478	      0.68220971	     15.48584030	      3.00777574	     -0.67513029	     13.23163919	      0.23093567	     -0.79813061	     -3.38459387	     -7.49999987	    -15.21048655	     -4.21731969	     -4.17249877	     22.44714078	      0.39177651	     17.04533669	     -4.20024443	     -7.49999987	    -14.13901956	      3.54239734	      3.67179471	      1.21794923	    -14.38956402	      2.97086951	     20.47115713	     87.29073921	     14.54123454	    -12.58129021	     13.14687105	     25.96954679	     87.15352116
     15.28333330	      5.62087942	     -4.07996854	     -2.22846480	      0.51072974	      1.01563544	      0.68541932	     15.09742222	      3.95617881	     -0.39012247	     14.55583541	      0.25404725	     -0.02475720	     -4.33320986	     -7.49999987	    -14.39600105	     -5.46330124	     -4.70032204	     26.05751869	      0.45478950	     15.89241267	     -4.56154565	     -7.49999987	    -14.02290628	      4.65266326	      3.43987600	      2.50773150	    -14.82283155	      3.95390558	     19.89432431	     86.43698620	     13.52217046	    -12.29055442	     12.55947732	     25.40137276	     86.33658023
     15.30000000	      5.77354048	     -4.93866870	     -2.15769108	      0.51325435	      1.01822820	      0.68865820	     14.39597743	      5.11825468	      0.09831976	     15.73370587	      0.27460497	      1.07667065	     -5.50479327	     -7.49999987	    -13.55306401	     -6.89576413	     -5.23574847	     29.97103690	      0.52309327	     14.37378118	     -5.01697876	     -7.49999987	    -14.11739398	      5.95495823	      2.74199116	      3.93723627	    -15.44673923	      5.85601570	     20.03076741	     89.78116705	     11.64631450	    -12.00249837	      9.46739223	     25.86289598	     90.83553417
     15.31666670	      5.90824922	     -5.81442996	     -2.10548235	      0.51525752	      1.02119845	      0.69183609	     13.51761656	      6.31814190	      0.54313024	     16.70795741	      0.29160887	      2.57307282	     -6.27275563	     -7.49999987	    -12.24954245	     -8.36756651	     -5.56125658	     34.41454421	      0.60064711	     12.42307234	     -5.78099232	     -7.49999987	    -14.02076994	      7.18864362	      2.79889966	      4.88056515	    -15.88325837	      6.86667600	     19.73856566	     88.26982174	     10.87055464	    -11.49748576	      9.80400175	     24.58810960	     89.51092875
     15.33333330	      6.30180045	     -6.69243036	     -1.99669859	      0.51590727	      1.02483412	      0.69358663	     12.03741361	      7.53734097	      1.04286950	     17.14827659	      0.29929389	      4.09349883	     -6.99849522	     -7.49999987	    -10.62419311	     -9.86052354	     -5.63469107	     39.48563829	      0.68915440	     10.07246498	     -6.82862384	     -7.49999987	    -14.38594770	      8.36473126	      2.94737691	      5.58439898	    -16.53272053	      8.31205634	     20.47003834	     86.73863430	      9.97921134	    -11.01770766	     10.18256689	     24.02959926	     88.19463639
     15.35000000	      6.64737070	     -7.41746265	     -1.88082621	      0.51374846	      1.02887223	      0.69343821	     10.36952764	      8.57217843	      1.43427407	     17.04548300	      0.29749980	      5.50189755	     -7.43564295	     -7.49999987	     -8.46813039	    -11.13156254	     -5.42476275	     44.84263323	      0.78265160	      7.81220516	     -8.25501948	     -7.49999987	    -14.70188563	      9.33569961	      3.37084133	      6.12604778	    -17.36402392	      9.66206799	     21.51274573	     87.08670707	      9.56578181	    -10.49566648	     11.06238923	     22.94065954	     89.10519727
     15.36666670	      7.03709577	     -7.89579073	     -1.66797918	      0.50866093	      1.03304389	      0.69273712	      8.47981071	      9.26950587	      1.61002581	     16.42742165	      0.28671260	      6.56723102	     -7.56155703	     -7.49999987	     -6.01886342	    -12.04104930	     -4.90984536	     50.01896497	      0.87299563	      6.05602086	     -9.60362713	     -7.49999987	    -15.21449273	     10.01114488	      3.86697503	      6.60585973	    -18.10729070	     10.35866328	     22.83569101	     86.96579356	      9.45394758	    -10.04851041	     12.18833039	     21.91228484	     90.15954951
     15.38333330	      7.46143492	     -8.07922051	     -1.51352647	      0.50261059	      1.03594695	      0.69327986	      6.50564318	      9.59357178	      1.68785598	     15.59067394	      0.27210859	      7.32350822	     -7.45411717	     -7.49999987	     -3.26223667	    -12.53872956	     -4.23383772	     54.86485731	      0.95757240	      4.60792497	    -10.85394757	     -7.49999987	    -15.98495391	     10.34317660	      4.25014329	      7.49159590	    -18.51522838	     10.29271634	     23.56355586	     86.87237381	      9.19416355	     -9.72459176	     12.36550920	     21.77064281	     90.19090573
